<svg id="Layer_1" enable-background="new 0 0 48 48" height="48" viewBox="0 0 48 48" width="48" xmlns="http://www.w3.org/2000/svg"><path d="m45.4140625 42.5859375-14.7907104-14.7907104c2.1078491-2.7102051 3.3766479-6.1038819 3.3766479-9.7952271 0-8.8222656-7.1777344-16-16-16s-16 7.1777344-16 16 7.1777344 16 16 16c3.6913452 0 7.085022-1.2687988 9.7952271-3.3766479l14.7907104 14.7907104c.390625.390625.9023438.5859375 1.4140625.5859375s1.0234375-.1953125 1.4140625-.5859375c.78125-.7807617.78125-2.0473633 0-2.828125z" fill="#fff"/><path d="m45.4140625 42.5859375-14.7907104-14.7907104c2.1078491-2.7102051 3.3766479-6.1038819 3.3766479-9.7952271 0-8.8222656-7.1777344-16-16-16s-16 7.1777344-16 16 7.1777344 16 16 16c3.6913452 0 7.085022-1.2687988 9.7952271-3.3766479l14.7907104 14.7907104c.390625.390625.9023438.5859375 1.4140625.5859375s1.0234375-.1953125 1.4140625-.5859375c.78125-.7807617.78125-2.0473633 0-2.828125zm-39.4140625-24.5859375c0-6.6166992 5.3828125-12 12-12s12 5.3833008 12 12-5.3828125 12-12 12-12-5.3833008-12-12z" fill="#09f"/></svg>